<?xml version="1.0" encoding="iso-8859-1"?>
<!-- Generator: Adobe Illustrator 19.1.0, SVG Export Plug-In . SVG Version: 6.00 Build 0)  -->
<svg version="1.1" id="Capa_1" xmlns="http://www.w3.org/2000/svg" xmlns:xlink="http://www.w3.org/1999/xlink" x="0px" y="0px"
	 viewBox="0 0 488.325 488.325" style="enable-background:new 0 0 488.325 488.325;" xml:space="preserve">
<g>
	<path d="M484.375,208.963l-68.2-68.3c-2.8-2.8-6.5-4.1-10.2-3.9c-3.7-0.2-7.4,1.1-10.2,3.9l-68.2,68.2c-5.3,5.3-5.3,13.8,0,19.1
		c2.6,2.6,6.1,4,9.5,4s6.9-1.3,9.5-4l45.8-45.8v177c0,37.2-30.3,67.6-67.6,67.6s-67.6-30.3-67.6-67.6v-230
		c0-52.1-42.4-94.6-94.6-94.6s-94.3,42.5-94.3,94.6v161.3l-45.2-45.2c-5.3-5.3-13.8-5.3-19.1,0c-5.3,5.3-5.3,13.8,0,19.1l68.2,68.3
		c2.6,2.6,6.1,4,9.5,4c0.2,0,0.4,0,0.6,0s0.4,0,0.6,0c3.5,0,6.9-1.3,9.5-4l68.2-68.2c5.3-5.3,5.3-13.8,0-19.1s-13.8-5.3-19.1,0
		l-46.5,46.5v-162.7c0-37.2,30.3-67.6,67.6-67.6s67.6,30.3,67.6,67.6v230c0,52.1,42.4,94.6,94.6,94.6c52.1,0,94.6-42.4,94.6-94.6
		v-177l45.8,45.8c2.6,2.6,6.1,4,9.5,4s6.9-1.3,9.5-4C489.675,222.763,489.675,214.163,484.375,208.963z"/>
</g>
<g>
</g>
<g>
</g>
<g>
</g>
<g>
</g>
<g>
</g>
<g>
</g>
<g>
</g>
<g>
</g>
<g>
</g>
<g>
</g>
<g>
</g>
<g>
</g>
<g>
</g>
<g>
</g>
<g>
</g>
</svg>
