<?xml version="1.0" encoding="iso-8859-1"?>
<!-- Generator: Adobe Illustrator 19.0.0, SVG Export Plug-In . SVG Version: 6.00 Build 0)  -->
<svg version="1.1" id="Capa_1" xmlns="http://www.w3.org/2000/svg" xmlns:xlink="http://www.w3.org/1999/xlink" x="0px" y="0px"
	 viewBox="0 0 363.156 363.156" style="enable-background:new 0 0 363.156 363.156;" xml:space="preserve">
<g>
	<g>
		<path d="M267.778,135.6h-52l60.4-119.2c0.8-1.6,1.6-3.6,1.6-5.6c0-6-4.8-10.8-10.8-10.8h-171.6c-6,0-10.8,4.8-10.8,10.8v190.8
			c0.4,5.6,5.2,10.4,10.8,10.4h39.6v140.4c0,3.6,2,7.2,5.2,9.2c5.2,3.2,11.6,1.2,14.8-3.6l121.6-205.6c1.2-1.6,2-4,2-6
			C278.578,140.4,273.778,135.6,267.778,135.6z M156.578,313.2V201.6c0-6-4.8-10.8-10.8-10.8h-39.6V21.6h0h142.8l-60.4,120
			c-2.8,5.2-0.4,11.6,4.8,14.4c1.6,0.8,3.2,1.2,4.8,1.2h50.8L156.578,313.2z"/>
	</g>
</g>
<g>
</g>
<g>
</g>
<g>
</g>
<g>
</g>
<g>
</g>
<g>
</g>
<g>
</g>
<g>
</g>
<g>
</g>
<g>
</g>
<g>
</g>
<g>
</g>
<g>
</g>
<g>
</g>
<g>
</g>
</svg>
