<?xml version="1.0" encoding="iso-8859-1"?>
<!-- Generator: Adobe Illustrator 18.1.1, SVG Export Plug-In . SVG Version: 6.00 Build 0)  -->
<svg version="1.1" id="Capa_1" xmlns="http://www.w3.org/2000/svg" xmlns:xlink="http://www.w3.org/1999/xlink" x="0px" y="0px"
	 viewBox="0 0 32 32" style="enable-background:new 0 0 32 32;" xml:space="preserve">
<g>
	<g id="fork">
		<g>
			<path style="fill:#030104;" d="M22,0v3.875c0,1.602-0.625,3.109-1.754,4.238L8.93,19.367C7.141,21.152,6.156,23.496,6.047,26H2
				l6,6l6-6h-3.957c0.105-1.438,0.684-2.773,1.711-3.805l11.316-11.25C24.961,9.055,26,6.547,26,3.875V0H22z"/>
			<path style="fill:#030104;" d="M25.953,26c-0.109-2.504-1.098-4.848-2.887-6.641l-2.23-2.215L18,19.965l2.242,2.23
				c1.031,1.027,1.609,2.367,1.715,3.805H18l6,6l6-6H25.953z"/>
		</g>
	</g>
</g>
<g>
</g>
<g>
</g>
<g>
</g>
<g>
</g>
<g>
</g>
<g>
</g>
<g>
</g>
<g>
</g>
<g>
</g>
<g>
</g>
<g>
</g>
<g>
</g>
<g>
</g>
<g>
</g>
<g>
</g>
</svg>
