<?xml version="1.0" encoding="iso-8859-1"?>
<!-- Generator: Adobe Illustrator 19.0.0, SVG Export Plug-In . SVG Version: 6.00 Build 0)  -->
<svg version="1.1" id="Capa_1" xmlns="http://www.w3.org/2000/svg" xmlns:xlink="http://www.w3.org/1999/xlink" x="0px" y="0px"
	 viewBox="0 0 512.006 512.006" style="enable-background:new 0 0 512.006 512.006;" xml:space="preserve">
<g transform="translate(1 1)">
	<g>
		<path d="M361.673-1C279.192-1,212.34,65.853,212.34,148.333c0,33.545,11.059,64.505,29.729,89.434l-98.147,98.147
			c0,0,0,0-0.001,0.001s0,0-0.001,0.001l-63.999,63.999c0,0,0,0-0.001,0.001s0,0-0.001,0.001L5.248,474.588
			c-8.331,8.331-8.331,21.839,0,30.17s21.839,8.331,30.17,0l59.588-59.588l59.582,59.582c8.331,8.331,21.839,8.331,30.17,0
			c8.331-8.331,8.331-21.839,0-30.17L125.176,415l33.83-33.83l38.248,38.248c8.331,8.331,21.839,8.331,30.17,0
			c8.331-8.331,8.331-21.839,0-30.17L189.176,351l83.062-83.063c24.929,18.67,55.889,29.729,89.434,29.729
			c82.481,0,149.333-66.853,149.333-149.333S444.154-1,361.673-1z M361.673,255c-29.38,0-55.982-11.876-75.272-31.088
			c-0.051-0.052-0.094-0.109-0.146-0.161s-0.109-0.095-0.161-0.146c-19.212-19.29-31.088-45.892-31.088-75.272
			c0-58.917,47.75-106.667,106.667-106.667c58.917,0,106.667,47.75,106.667,106.667C468.34,207.25,420.59,255,361.673,255z"/>
	</g>
</g>
<g>
</g>
<g>
</g>
<g>
</g>
<g>
</g>
<g>
</g>
<g>
</g>
<g>
</g>
<g>
</g>
<g>
</g>
<g>
</g>
<g>
</g>
<g>
</g>
<g>
</g>
<g>
</g>
<g>
</g>
</svg>
