<?xml version="1.0" encoding="iso-8859-1"?>
<!-- Generator: Adobe Illustrator 19.0.0, SVG Export Plug-In . SVG Version: 6.00 Build 0)  -->
<svg version="1.1" id="Capa_1" xmlns="http://www.w3.org/2000/svg" xmlns:xlink="http://www.w3.org/1999/xlink" x="0px" y="0px"
	 viewBox="0 0 512 512" style="enable-background:new 0 0 512 512;" xml:space="preserve">
<g>
	<g>
		<path d="M256,0C116.592,0,0,116.385,0,256c0,139.481,116.134,256,256,256c139.487,0,256-116.141,256-256
			C512,116.519,395.866,0,256,0z M256,482c-59.455,0-115.957-23.759-159.099-66.901C11.255,329.453,7.845,197.225,86.639,107.852
			l99.352,99.352l-63.263,63.263c-35.175,35.174-35.177,92.103,0,127.279c35.173,35.174,92.103,35.177,127.279,0l63.263-63.263
			l90.879,90.879C362.608,461.985,310.551,482,256,482z M312.016,290.803l-82.344-82.344c9.482-5.707,20.209-8.57,30.943-8.57
			c15.36,0,30.726,5.848,42.421,17.54c0.003,0.003,0.007,0.007,0.01,0.01C322.909,237.307,325.892,267.747,312.016,290.803z
			 M309.595,147.239l18.709-18.709l10.607,31.82l-18.709,18.709L309.595,147.239z M292.057,313.27l-63.263,63.263l-84.853-84.853
			l63.263-63.263L292.057,313.27z M201.906,392.071c-20.033,5.335-42.195,0.231-57.964-15.538
			c-15.731-15.731-20.888-37.878-15.538-57.964L201.906,392.071z M425.361,404.148l-91.711-91.711
			c16.666-23.125,21.013-52.431,13.037-78.785l25.856,8.619c5.393,1.797,11.334,0.393,15.35-3.624l42.427-42.427
			c7.865-7.865,4.714-21.311-5.863-24.837l-40.615-13.538l4.051-4.051c5.858-5.858,5.858-15.355,0-21.213
			c-5.857-5.858-15.355-5.858-21.213,0l-4.051,4.051L349.09,96.018c-3.517-10.553-16.954-13.746-24.836-5.863l-42.426,42.426
			c-4.018,4.017-5.42,9.96-3.624,15.35l8.592,25.778c-8.38-2.535-17.18-3.848-26.182-3.848c-19.145,0-37.366,5.955-52.583,16.958
			l-100.18-100.18C150.677,48.884,203.334,29.99,256,29.99c57.246,0,114.492,22.304,159.099,66.911
			C500.745,182.547,504.154,314.775,425.361,404.148z M341.416,200.272l18.709-18.709l31.82,10.607l-18.709,18.709L341.416,200.272z
			"/>
	</g>
</g>
<g>
</g>
<g>
</g>
<g>
</g>
<g>
</g>
<g>
</g>
<g>
</g>
<g>
</g>
<g>
</g>
<g>
</g>
<g>
</g>
<g>
</g>
<g>
</g>
<g>
</g>
<g>
</g>
<g>
</g>
</svg>
