<?xml version="1.0" encoding="iso-8859-1"?>
<!-- Generator: Adobe Illustrator 19.0.0, SVG Export Plug-In . SVG Version: 6.00 Build 0)  -->
<svg version="1.1" id="Capa_1" xmlns="http://www.w3.org/2000/svg" xmlns:xlink="http://www.w3.org/1999/xlink" x="0px" y="0px"
	 viewBox="0 0 490 490" style="enable-background:new 0 0 490 490;" xml:space="preserve">
<path d="M422.234,0H208.47c-2.77,0-5.417,1.1-7.372,3.055L60.394,143.759c-1.955,1.955-3.054,4.607-3.054,7.371v328.445
	c0,5.758,4.662,10.426,10.425,10.426h354.468c5.762,0,10.425-4.668,10.425-10.426V10.426C432.659,4.668,427.996,0,422.234,0z
	 M198.044,35.594v105.11H92.934l56.301-56.301L198.044,35.594z M411.809,469.149H78.192V161.555H208.47
	c5.762,0,10.426-4.668,10.426-10.426V20.851h192.913V469.149z"/>
<g>
</g>
<g>
</g>
<g>
</g>
<g>
</g>
<g>
</g>
<g>
</g>
<g>
</g>
<g>
</g>
<g>
</g>
<g>
</g>
<g>
</g>
<g>
</g>
<g>
</g>
<g>
</g>
<g>
</g>
</svg>
