<?xml version="1.0" encoding="iso-8859-1"?>
<!-- Generator: Adobe Illustrator 19.0.0, SVG Export Plug-In . SVG Version: 6.00 Build 0)  -->
<svg version="1.1" id="Layer_1" xmlns="http://www.w3.org/2000/svg" xmlns:xlink="http://www.w3.org/1999/xlink" x="0px" y="0px"
	 viewBox="0 0 512 512" style="enable-background:new 0 0 512 512;" xml:space="preserve">
<g transform="translate(1)">
	<g>
		<path d="M469.857,132.571h-256c-19.2-24.686-39.314-27.429-67.657-27.429h-0.914c-38.4,0-67.657,26.514-76.8,36.571H35.571
			C15.457,141.714-1,158.171-1,178.286v165.486c0,20.114,16.457,35.657,36.571,35.657H69.4
			c35.657,26.514,48.457,27.429,112.457,27.429c33.829,0,72.229-9.143,83.2-10.971c21.029,5.486,42.971-5.486,50.286-26.514
			c2.743-8.229,2.743-18.286,0-26.514c16.457,0,32-10.971,37.486-27.429l0.914-0.914c3.657-10.057,2.743-21.943-1.829-31.086
			c-0.793-1.586-1.703-3.113-2.707-4.579C368.39,275.177,383,257.816,383,237.714c0-8.229-2.743-16.457-7.314-22.857h94.171
			c22.857,0,41.143-18.286,41.143-41.143C511,150.857,492.714,132.571,469.857,132.571z M77.629,362.971
			c-1.829-0.914-3.657-1.829-5.486-1.829H35.571c-10.057,0-18.286-8.229-18.286-17.371V178.286c0-10.057,8.229-18.286,18.286-18.286
			h36.571c2.743,0,5.486-0.914,7.314-3.657c0,0,27.429-32,64.914-32.914h0.914c28.343,0,41.143,1.829,55.771,23.771l0.914,0.914
			l7.159,8.461c22.036,28.897,45.949,60.642,55.013,73.825c9.143,14.629,11.886,26.514,6.4,33.829
			c-3.843,4.612-11.562,6.626-18.814,5.525c-1.086-0.225-2.134-0.539-3.129-0.954c-10.971-4.571-30.171-17.371-51.2-34.743
			c-0.965-0.724-1.994-1.251-3.052-1.592c-24.916-20.907-48.088-44.686-52.719-56.008c-1.829-4.571-7.314-6.4-11.886-4.571
			c-4.571,1.829-6.4,7.314-4.571,11.886c5.734,13.378,27.949,36.993,52.549,58.319c-2.046,2.962-3.64,6.15-5.006,9.338l-0.914,1.829
			c-3.522,10.125-2.794,20.668,1.243,29.702c-14.033,2.767-26.476,12.786-31.415,26.984c-7.314,21.029,4.571,44.8,25.6,52.114
			l62.6,21.669c-14.524,2.564-31.95,4.845-47.972,4.845C117.857,388.571,110.543,387.657,77.629,362.971z M188.257,301.714
			l71.309,24.684l24.404,8.488c4.309,1.664,7.752,4.272,10.256,7.47c0.709,1.033,1.353,2.118,1.916,3.244
			c2.743,5.486,2.743,11.886,0.914,17.371c-3.657,11.886-16.457,18.286-29.257,13.714c-0.899,0-1.799-0.22-2.698-0.336
			l-91.473-31.664c-12.8-4.571-18.286-17.371-14.629-29.257c1.829-5.486,6.4-10.057,11.886-12.8c2.743-1.829,6.4-2.743,10.057-2.743
			C183.686,299.886,186.429,300.8,188.257,301.714z M321.743,280.686c5.486,1.829,10.057,5.486,12.8,10.971
			c2.743,4.571,2.743,10.971,0.914,16.457l-0.914,1.829c-1.366,4.099-3.755,7.685-7.163,10.382
			c-5.484,3.552-12.412,4.553-19.351,2.418l-18.286-6.4c-1.729-0.576-3.367-0.697-4.857-0.451l-19.85-6.871l-63.064-21.935
			c-11.886-4.571-17.371-16.457-13.714-28.343l0.914-1.829c0-0.914,0.914-2.743,1.829-3.657c0.754,0.583,1.496,1.149,2.242,1.722
			c16.367,12.993,32.496,23.881,44.435,29.152c0.257,0.114,0.512,0.225,0.765,0.333c0.655,0.28,1.301,0.549,1.929,0.793
			c4.412,1.858,9.179,2.709,14.029,2.711c0.5,0.016,0.999,0.032,1.513,0.032c6.336,0,12.666-1.533,18.121-4.406
			c7.201-3.218,13.702-8.036,18.45-13.88L321.743,280.686z M341.857,259.657H338.2l-21.029-2.743c-1.43,0-2.86,0.269-4.178,0.778
			l-20.507-7.178c-0.539-0.215-1.077-0.376-1.611-0.491c-0.928-8.116-4.319-18.004-12.104-29.68
			c-1.028-1.682-2.276-3.614-3.694-5.737l68.608-1.577c5.486,0,10.971,2.743,14.629,6.4c3.657,4.571,6.4,10.057,6.4,16.457
			C364.714,248.686,354.657,259.657,341.857,259.657z M469.857,196.571H343.686c-0.914,0-0.914,0-1.829,0h-77.714
			c-0.583,0-1.14,0.05-1.679,0.13c-10.128-13.897-22.786-30.532-34.569-45.844h241.963c12.8,0,22.857,10.057,22.857,22.857
			S482.657,196.571,469.857,196.571z"/>
	</g>
</g>
<g>
</g>
<g>
</g>
<g>
</g>
<g>
</g>
<g>
</g>
<g>
</g>
<g>
</g>
<g>
</g>
<g>
</g>
<g>
</g>
<g>
</g>
<g>
</g>
<g>
</g>
<g>
</g>
<g>
</g>
</svg>
