<?xml version="1.0" encoding="iso-8859-1"?>
<!-- Generator: Adobe Illustrator 19.0.0, SVG Export Plug-In . SVG Version: 6.00 Build 0)  -->
<svg version="1.1" id="Layer_1" xmlns="http://www.w3.org/2000/svg" xmlns:xlink="http://www.w3.org/1999/xlink" x="0px" y="0px"
	 viewBox="0 0 423.642 423.642" style="enable-background:new 0 0 423.642 423.642;" xml:space="preserve">
<path d="M407.517,123.262l-27.717,11.48c18.585,44.869,18.585,94.29,0,139.159c-18.585,44.869-53.531,79.815-98.4,98.4
	c-92.627,38.368-199.194-5.776-237.559-98.4C8.46,188.486,43.246,91.212,121.514,46.501v74.992h30V7.498H37.519v30h43.755
	c-73,57.164-102.323,158.139-65.15,247.885c33.754,81.49,112.806,130.768,195.972,130.762c26.96-0.002,54.367-5.184,80.784-16.125
	C400.788,355.322,452.213,231.169,407.517,123.262z"/>
<g>
</g>
<g>
</g>
<g>
</g>
<g>
</g>
<g>
</g>
<g>
</g>
<g>
</g>
<g>
</g>
<g>
</g>
<g>
</g>
<g>
</g>
<g>
</g>
<g>
</g>
<g>
</g>
<g>
</g>
</svg>
