<?xml version='1.0' encoding='utf-8'?>
<!DOCTYPE svg PUBLIC '-//W3C//DTD SVG 1.1//EN' 'http://www.w3.org/Graphics/SVG/1.1/DTD/svg11.dtd'>
<svg width="64" version="1.1" xmlns="http://www.w3.org/2000/svg" height="64" viewBox="0 0 64 64" xmlns:xlink="http://www.w3.org/1999/xlink" enable-background="new 0 0 64 64">
  <g>
    <path fill="#1D1D1B" d="m37.149,10.41c0.391,0.393 0.903,0.588 1.415,0.588s1.024-0.195 1.415-0.586c0.782-0.783 0.782-2.052 0-2.834l-6.98-6.99c-0.186-0.186-0.406-0.333-0.652-0.435-0.485-0.2-1.032-0.206-1.518-0.008-0.006,0.002-0.008,0.006-0.012,0.008-0.211,0.088-0.395,0.222-0.561,0.372-0.027,0.025-0.062,0.033-0.09,0.059l-.002,.004-6.832,6.838c-0.782,0.781-0.782,2.05 0,2.832 0.391,0.392 0.903,0.588 1.415,0.588 0.513,0 1.024-0.196 1.415-0.588l3.417-3.42-.002,50.321-3.415-3.418c-0.781-0.782-2.048-0.782-2.83,0-0.782,0.783-0.782,2.052 0,2.833l6.834,6.839c0.392,0.392 0.904,0.587 1.416,0.587s1.024-0.195 1.415-0.587l6.982-6.991c0.782-0.782 0.782-2.052 0-2.833-0.781-0.782-2.048-0.782-2.83,0l-3.567,3.571 .002-50.32 3.565,3.57z"/>
  </g>
</svg>
