<?xml version="1.0" encoding="iso-8859-1"?>
<!-- Generator: Adobe Illustrator 19.0.0, SVG Export Plug-In . SVG Version: 6.00 Build 0)  -->
<svg version="1.1" id="Layer_1" xmlns="http://www.w3.org/2000/svg" xmlns:xlink="http://www.w3.org/1999/xlink" x="0px" y="0px"
	 viewBox="0 0 512 512" style="enable-background:new 0 0 512 512;" xml:space="preserve">
<g>
	<g>
		<path d="M505.942,143.954L368.046,6.058C364.167,2.179,358.907,0,353.422,0H158.578c-5.485,0-10.746,2.179-14.625,6.058
			L6.058,143.954C2.179,147.833,0,153.094,0,158.578v194.844c0,5.486,2.179,10.746,6.058,14.625l137.896,137.895
			c3.879,3.879,9.14,6.058,14.625,6.058h194.843c5.486,0,10.746-2.179,14.626-6.058l137.895-137.896
			c3.879-3.879,6.058-9.139,6.058-14.625V158.578C512,153.093,509.821,147.832,505.942,143.954z M470.636,344.855L344.855,470.636
			H167.146L41.364,344.855V167.146L167.146,41.364h177.709l125.781,125.781V344.855z"/>
	</g>
</g>
<g>
</g>
<g>
</g>
<g>
</g>
<g>
</g>
<g>
</g>
<g>
</g>
<g>
</g>
<g>
</g>
<g>
</g>
<g>
</g>
<g>
</g>
<g>
</g>
<g>
</g>
<g>
</g>
<g>
</g>
</svg>
